<svg xmlns="http://www.w3.org/2000/svg" width="1000" height="1000" viewBox="0 0 1000 1000" version="1.1">
	<path d="M 489.105 205.583 C 477.021 208.832, 467.469 216.252, 464.613 224.607 C 459.320 240.095, 463.089 265.288, 472.883 279.893 C 480 290.505, 479.646 289.150, 476.689 294.441 L 474.037 299.185 477.864 303.843 C 481.941 308.805, 486 315.172, 486 316.605 C 486 317.082, 484.459 315.185, 482.575 312.388 C 478.300 306.039, 470.820 299.316, 465.249 296.814 C 453.890 291.714, 442.116 293.806, 421.212 304.640 C 406.689 312.167, 398.406 315.080, 392.040 314.900 C 389.202 314.819, 389.790 314.523, 395 313.406 C 402.221 311.859, 416.604 305.200, 419.402 302.108 C 421.166 300.160, 421.123 300.078, 417.554 298.587 C 396.954 289.980, 363.785 294.610, 354.329 307.414 C 351.016 311.898, 342.796 318.003, 340.079 317.996 C 339.163 317.994, 339.776 317.215, 341.539 316.139 C 345.353 313.813, 352.636 305.616, 354.990 301 C 355.972 299.075, 357.812 294.350, 359.079 290.500 C 361.124 284.291, 361.391 281.495, 361.442 265.750 C 361.474 255.988, 361.304 248.001, 361.064 248 C 360.825 248, 359.587 248.978, 358.314 250.174 C 354.565 253.696, 355.670 250.397, 359.533 246.533 C 363.553 242.513, 362.831 242.656, 377.543 242.967 L 388.585 243.200 394.293 236.086 C 397.432 232.173, 400 228.056, 400 226.936 C 400 221.741, 393.924 215.421, 383.734 210.015 C 379.643 207.845, 378.834 207.733, 375.163 208.833 C 370.340 210.278, 356.604 220.226, 352.446 225.285 C 350.826 227.257, 346.632 234.187, 343.126 240.685 C 339.621 247.183, 332.915 258.321, 328.224 265.436 C 311.598 290.655, 307.411 304.430, 311.333 321 C 313.334 329.452, 315.069 332.297, 319.500 334.388 C 321.700 335.426, 326.875 338.381, 331 340.955 C 340.711 347.015, 346.076 349.197, 359.500 352.550 C 373.258 355.985, 391.809 356.533, 401.500 353.791 C 404.800 352.857, 411.008 351.914, 415.295 351.694 C 422.037 351.349, 423.049 351.511, 422.784 352.897 C 422.575 353.994, 420.746 354.784, 416.989 355.399 C 413.970 355.893, 411.354 356.414, 411.176 356.556 C 410.515 357.083, 413.936 362.681, 418.476 368.500 L 423.157 374.500 422.973 403.500 C 422.872 419.450, 422.836 433.465, 422.894 434.644 C 422.952 435.824, 424.306 438.186, 425.901 439.894 L 428.802 443 499.679 443 C 563.586 443, 570.784 442.840, 572.883 441.369 C 577.767 437.949, 578 435.835, 578 395.032 C 578 374.114, 578.239 357, 578.532 357 C 578.825 357, 580.707 357.686, 582.714 358.525 C 586.363 360.050, 586.366 360.049, 590.088 356.414 L 593.811 352.778 603.093 354.572 C 611.263 356.151, 613.761 356.226, 623.938 355.198 C 642.134 353.359, 658.327 348.248, 669.073 340.951 C 672.325 338.742, 676.985 336.078, 679.429 335.031 C 684.856 332.704, 686.464 330.379, 688.440 321.995 C 692.634 304.200, 688.790 291.480, 670.876 263.876 C 665.719 255.929, 659.025 244.719, 656 238.964 C 649.852 227.267, 643.446 220.047, 633.186 213.250 C 624.255 207.333, 621.464 207.016, 614.317 211.105 C 611.136 212.925, 606.614 216.334, 604.267 218.680 C 598.384 224.563, 598.564 226.810, 605.651 235.930 L 611.302 243.203 622.401 242.969 C 637.176 242.656, 636.445 242.512, 640.467 246.533 C 644.330 250.397, 645.435 253.696, 641.686 250.174 C 640.413 248.978, 639.175 248, 638.936 248 C 638.696 248, 638.531 255.988, 638.569 265.750 C 638.633 282.039, 638.850 284.137, 641.211 291.244 C 644.385 300.798, 648.684 307.632, 655.214 313.502 C 657.965 315.976, 659.795 318, 659.280 318 C 657.109 318, 648.604 311.384, 645.671 307.414 C 640.123 299.902, 623.770 294.054, 608.208 294.017 C 600.277 293.998, 588.316 296.134, 582.319 298.640 L 578.538 300.220 581.519 302.666 C 587.354 307.455, 595.279 310.961, 606 313.495 C 610.846 314.640, 611.084 314.804, 608 314.873 C 601.361 315.021, 595.447 312.962, 579.500 304.952 C 562.126 296.225, 552.236 293.303, 544.148 294.506 L 539.797 295.153 543.077 296.827 C 550.419 300.572, 552.346 306.734, 551.010 322.205 C 550.274 330.739, 550.386 334.060, 551.563 338.579 C 552.566 342.431, 552.717 344.637, 552.033 345.461 C 551.411 346.209, 550.926 360.034, 550.763 381.587 L 550.500 416.500 528.571 416.770 C 511.710 416.978, 506.448 416.747, 505.802 415.770 C 505.340 415.071, 505.045 411.692, 505.147 408.259 L 505.333 402.019 500.416 399.419 C 497.712 397.990, 493.996 395.680, 492.157 394.288 L 488.813 391.756 493.998 390.001 C 496.850 389.035, 499.930 387.459, 500.842 386.499 C 502.417 384.840, 502.369 384.835, 499.891 386.399 C 498.456 387.305, 494.406 388.681, 490.891 389.457 C 487.376 390.234, 482.700 391.404, 480.500 392.058 C 473.164 394.239, 457.379 392.168, 451.250 388.219 C 449.043 386.798, 449 386.394, 449 367.315 L 449 347.861 452.096 340.424 C 455.115 333.171, 460.039 327.155, 465.229 324.378 C 467.697 323.057, 470.568 323.844, 475.131 327.093 C 478.546 329.525, 478.722 331.662, 475.901 336.443 C 473.944 339.760, 473.467 340, 468.835 340 C 463.714 340, 460 341.301, 460 343.094 C 460 343.657, 460.337 343.909, 460.750 343.655 C 461.579 343.142, 461.803 345.285, 462.121 356.750 C 462.353 365.100, 460.454 370.563, 455.749 375.085 C 453.632 377.120, 453.623 377.184, 455.595 376.171 C 456.747 375.580, 458.937 373.461, 460.461 371.463 C 464.409 366.286, 470.803 363.712, 480 363.595 C 484.125 363.543, 488.349 363.847, 489.386 364.271 C 491.234 365.026, 491.234 365.084, 489.386 367.145 C 487.959 368.737, 488.651 368.522, 492.234 366.259 C 502.434 359.816, 513.466 359.328, 524.163 364.845 C 529.985 367.848, 530.256 367.901, 528.119 365.627 C 526.858 364.284, 523.878 362.152, 521.497 360.889 L 517.169 358.593 520.205 352.759 C 523.133 347.134, 523.178 346.854, 521.462 344.958 C 520.483 343.877, 517.954 342.526, 515.841 341.957 L 512 340.923 512 335.461 C 512 331.224, 511.657 330, 510.469 330 C 507.917 330, 507.745 327.421, 510.002 322.996 C 511.180 320.688, 512.475 315.691, 512.881 311.893 C 513.683 304.392, 515.604 300.858, 520.706 297.500 C 523.339 295.767, 523.826 294.729, 524.360 289.715 C 524.749 286.064, 526.422 280.900, 528.893 275.715 C 534.957 262.998, 536.503 255.722, 536.483 240 C 536.468 227.873, 536.228 226.016, 534.120 221.744 C 527.652 208.632, 506.288 200.962, 489.105 205.583 M 356.703 367.792 L 353 371.584 353 464.589 L 353 557.594 356.792 561.297 C 360.236 564.660, 361.090 565, 366.089 565 C 371.144 565, 371.897 564.690, 375.297 561.208 L 379 557.416 379 464.411 L 379 371.406 375.208 367.703 C 371.764 364.340, 370.910 364, 365.911 364 C 360.856 364, 360.103 364.310, 356.703 367.792 M 624.703 367.792 L 621 371.584 621 464.589 L 621 557.594 624.792 561.297 C 628.222 564.646, 629.103 565, 634.004 565 C 639.026 565, 639.739 564.691, 643.712 560.792 L 648 556.584 648 464.580 L 648 372.576 643.792 368.288 C 639.830 364.251, 639.257 364, 633.995 364 C 628.843 364, 628.116 364.297, 624.703 367.792 M 288.703 408.792 L 285 412.584 285 464.089 L 285 515.594 288.792 519.297 C 292.326 522.747, 293 523, 298.676 523 C 304.514 523, 304.917 522.834, 308.384 518.997 L 312 514.994 312 464.285 L 312 413.576 307.792 409.288 C 303.830 405.251, 303.257 405, 297.995 405 C 292.843 405, 292.116 405.297, 288.703 408.792 M 692.668 408.828 L 688.930 412.656 688.956 464.578 L 688.982 516.500 692.741 519.735 C 696.077 522.606, 697.182 522.972, 702.554 522.985 C 708.091 522.999, 708.879 522.720, 711.786 519.720 L 714.965 516.441 715.018 464.548 L 715.070 412.656 711.332 408.828 C 707.880 405.292, 707.167 405, 702 405 C 696.833 405, 696.120 405.292, 692.668 408.828 M 429.687 486.500 C 428.037 487.050, 425.792 488.708, 424.698 490.184 C 422.774 492.779, 422.715 494.345, 422.910 537.684 L 423.112 582.500 426.759 586.250 C 430.180 589.768, 430.780 590, 436.453 590 C 442.241 590, 442.629 589.839, 445.500 586.250 L 448.500 582.500 449 547.500 L 449.500 512.500 500 512.500 L 550.500 512.500 550.763 547.471 L 551.026 582.443 554.716 586.221 C 558.187 589.776, 558.767 590, 564.500 590 C 570.236 590, 570.811 589.777, 574.297 586.208 L 578 582.416 578 539.176 C 578 492.450, 577.841 490.907, 572.668 487.518 C 570.421 486.046, 563.212 485.861, 501.427 485.690 C 457.742 485.569, 431.593 485.864, 429.687 486.500 M 251.500 621.370 C 247.728 623.076, 245.498 625.564, 243.538 630.254 C 242.245 633.350, 242 640.034, 242 672.256 C 242 710.024, 242.032 710.640, 244.250 714.980 C 248.434 723.168, 249.475 723.500, 271 723.500 C 288.482 723.500, 290.054 723.350, 292.615 721.438 C 299.447 716.337, 299.470 716.236, 299.801 689.929 L 300.101 666 286.051 666 L 272 666 272 673.940 L 272 681.879 275.750 682.190 L 279.500 682.500 279.780 694.649 C 280.114 709.147, 279.661 710, 271.629 710 C 268.753 710, 265.860 709.460, 265.200 708.800 C 264.311 707.911, 264 698.224, 264 671.407 C 264 630.735, 263.301 634, 272.010 634 C 278.702 634, 280 635.555, 280 643.571 L 280 650 290.094 650 L 300.187 650 299.844 640.070 C 299.473 629.367, 298.470 626.936, 292.618 622.562 C 290.110 620.686, 288.262 620.478, 272.180 620.257 C 258.998 620.075, 253.737 620.358, 251.500 621.370 M 390.424 622.019 C 387.792 623.322, 385.488 625.537, 383.924 628.269 L 381.500 632.500 381.194 677.750 L 380.888 723 391.944 723 L 403 723 403 680.200 C 403 648.244, 403.304 637.096, 404.200 636.200 C 404.860 635.540, 407.695 635, 410.500 635 C 413.305 635, 416.140 635.540, 416.800 636.200 C 417.696 637.096, 418 648.244, 418 680.200 L 418 723 429 723 L 440 723 440 679.519 L 440 636.038 442.330 635.453 C 443.612 635.132, 446.649 635.011, 449.080 635.184 L 453.500 635.500 453.761 679.250 L 454.021 723 465.011 723 L 476 723 476 678.212 C 476 633.736, 475.984 633.393, 473.750 629.020 C 469.931 621.546, 467.689 620.551, 453.800 620.163 C 438.976 619.749, 435.875 620.293, 431.588 624.057 C 429.077 626.262, 428.085 626.663, 427.690 625.635 C 427.399 624.877, 425.183 623.299, 422.765 622.128 C 419.033 620.322, 416.565 620, 406.434 620.001 C 396.479 620.001, 393.824 620.336, 390.424 622.019 M 597.500 621.371 C 593.728 623.076, 591.498 625.564, 589.538 630.254 C 588.232 633.380, 588 640.655, 588 678.468 L 588 723 599 723 L 610 723 610 706 L 610 689 618 689 L 626 689 626 706 L 626 723 637 723 L 648 723 647.994 682.250 C 647.988 640.390, 647.364 631.303, 644.201 627.067 C 639.537 620.820, 638.415 620.521, 618.680 620.257 C 605.084 620.076, 599.744 620.356, 597.500 621.371 M 673.500 621.403 C 669.740 623.062, 667.505 625.547, 665.538 630.254 C 664.232 633.380, 664 640.655, 664 678.468 L 664 723 675 723 L 686 723 686 679.519 L 686 636.038 688.330 635.453 C 689.612 635.132, 692.649 635.011, 695.080 635.184 L 699.500 635.500 699.761 679.250 L 700.021 723 711.011 723 L 722 723 722 680.200 C 722 648.244, 722.304 637.096, 723.200 636.200 C 723.860 635.540, 726.695 635, 729.500 635 C 732.305 635, 735.140 635.540, 735.800 636.200 C 736.696 637.096, 737 648.244, 737 680.200 L 737 723 748.047 723 L 759.095 723 758.797 677.750 C 758.503 632.937, 758.478 632.459, 756.237 628.263 C 752.593 621.444, 748.620 620, 733.500 620 C 722.985 620, 720.291 620.321, 717.083 621.957 C 714.973 623.034, 712.953 624.680, 712.594 625.616 C 712.017 627.119, 711.624 627.015, 709.220 624.722 C 707.724 623.295, 705.233 621.649, 703.685 621.064 C 699.601 619.521, 677.193 619.772, 673.500 621.403 M 317.038 653.110 L 328 685.220 328 704.110 L 328 723 339 723 L 350 723 350 704.250 L 350 685.500 360.976 653.250 L 371.953 621 361.609 621 L 351.265 621 345.439 641.500 C 342.235 652.775, 339.338 662, 339 662 C 338.662 662, 335.765 652.775, 332.561 641.500 L 326.735 621 316.405 621 L 306.075 621 317.038 653.110 M 552 664.300 C 552 696.644, 551.696 707.904, 550.800 708.800 C 549.327 710.273, 542.569 710.375, 539.934 708.965 C 538.256 708.067, 538 706.810, 538 699.465 L 538 691 527.387 691 L 516.773 691 517.183 701.250 C 517.650 712.900, 519.375 717.704, 524.373 721.270 C 527.332 723.380, 528.476 723.500, 545.677 723.500 C 566.441 723.500, 567.588 723.125, 571.750 714.980 C 573.984 710.607, 574 710.264, 574 665.788 L 574 621 563 621 L 552 621 552 664.300 M 611.250 634.662 C 610.314 635.040, 610 639.786, 610 653.583 L 610 672 618 672 L 626 672 626 654.571 C 626 634.217, 625.893 633.954, 617.679 634.079 C 614.830 634.122, 611.938 634.385, 611.250 634.662 M 284 772 C 284 782.889, 284.244 785, 285.500 785 C 286.652 785, 287 783.722, 287 779.500 L 287 774 291.545 774 C 296.878 774, 301 770.730, 301 766.500 C 301 765.075, 299.895 762.805, 298.545 761.455 C 296.481 759.390, 295.131 759, 290.045 759 L 284 759 284 772 M 315 772 L 315 785 321.583 785 C 326.403 785, 328.056 784.665, 327.755 783.750 C 327.525 783.051, 325.283 782.366, 322.672 782.195 L 318 781.890 318 770.445 C 318 760.938, 317.746 759, 316.500 759 C 315.244 759, 315 761.111, 315 772 M 345.019 770.701 C 342.661 777.190, 340.518 783.063, 340.258 783.750 C 339.999 784.438, 340.533 785, 341.445 785 C 342.389 785, 343.555 783.708, 344.150 782 C 345.150 779.131, 345.450 779, 351 779 C 356.550 779, 356.850 779.131, 357.850 782 C 358.432 783.668, 359.615 785, 360.515 785 C 362.380 785, 362.471 785.386, 356.995 770 C 351.729 755.203, 350.628 755.268, 345.019 770.701 M 376 772 C 376 784.333, 376.103 785, 378 785 C 379.870 785, 380 784.331, 380.006 774.750 L 380.012 764.500 386.756 774.729 C 396.137 788.959, 397 788.729, 397 772 C 397 761.249, 396.747 759, 395.535 759 C 394.362 759, 394.013 761.044, 393.785 769.250 L 393.500 779.500 386.597 769.250 C 376.917 754.875, 376 755.113, 376 772 M 431 759.438 C 431 759.678, 432.794 763.166, 434.986 767.188 C 438.187 773.060, 438.975 775.534, 438.986 779.750 C 438.997 783.744, 439.359 785, 440.500 785 C 441.612 785, 442 783.831, 442 780.478 C 442 777.195, 443.096 773.776, 446 768 C 450.552 758.947, 450.537 759, 448.458 759 C 447.522 759, 445.718 761.653, 443.868 765.750 L 440.820 772.500 437.396 765.750 C 435.484 761.980, 433.316 759, 432.486 759 C 431.669 759, 431 759.197, 431 759.438 M 470.096 760.265 C 461.541 764.662, 461.014 777.902, 469.190 783.034 C 474.058 786.089, 481.159 785.302, 485.202 781.260 C 491.040 775.421, 489.916 764.745, 483.035 760.680 C 479.701 758.710, 473.508 758.511, 470.096 760.265 M 504 769.545 C 504 779.409, 504.159 780.250, 506.455 782.545 C 510.615 786.706, 519.573 785.428, 521.890 780.343 C 522.500 779.002, 523 773.652, 523 768.453 C 523 760.717, 522.728 759, 521.500 759 C 520.274 759, 520 760.697, 520 768.277 C 520 779.286, 518.734 782, 513.598 782 C 508.109 782, 507 779.759, 507 768.671 C 507 760.741, 506.730 759, 505.500 759 C 504.261 759, 504 760.838, 504 769.545 M 539 772 C 539 782.889, 539.244 785, 540.500 785 C 541.652 785, 542 783.722, 542 779.500 C 542 774.438, 542.182 774, 544.285 774 C 546.028 774, 547.273 775.303, 549.535 779.497 C 551.387 782.930, 553.157 784.994, 554.250 784.997 C 556.590 785.001, 556.493 784.523, 553.009 778.861 C 551.364 776.187, 550.379 774, 550.821 774 C 553.009 774, 556 769.689, 556 766.534 C 556 761.473, 552.345 759, 544.865 759 L 539 759 539 772 M 592 772 C 592 782.889, 592.244 785, 593.500 785 C 594.652 785, 595 783.722, 595 779.500 L 595 774 599.545 774 C 604.878 774, 609 770.730, 609 766.500 C 609 765.075, 607.895 762.805, 606.545 761.455 C 604.481 759.390, 603.131 759, 598.045 759 L 592 759 592 772 M 623.159 769.588 C 623.487 779.760, 623.610 780.272, 626.306 782.588 C 629.345 785.201, 634.643 785.796, 638.150 783.920 C 641.420 782.170, 643 776.831, 643 767.532 C 643 759.667, 642.844 759, 641 759 C 639.134 759, 639 759.667, 639 768.929 C 639 780.487, 638.036 782.298, 632.149 781.803 C 627.230 781.389, 626.033 778.648, 626.015 767.750 C 626.002 760.423, 625.741 759, 624.409 759 C 623.033 759, 622.864 760.431, 623.159 769.588 M 658.701 759.632 C 658.316 760.018, 658 765.883, 658 772.667 C 658 784.255, 658.119 785, 659.962 785 C 661.750 785, 661.951 784.177, 662.212 775.752 L 662.500 766.504 666.455 775.752 C 668.630 780.838, 670.922 785, 671.547 785 C 672.173 785, 674.668 780.837, 677.092 775.750 L 681.500 766.500 681.788 775.750 C 682.015 783.069, 682.380 785, 683.538 785 C 684.746 785, 685 782.741, 685 772 C 685 760, 684.857 759, 683.143 759 C 681.751 759, 680.219 761.444, 677.030 768.750 C 674.690 774.112, 672.456 778.847, 672.066 779.272 C 671.676 779.696, 669.279 775.421, 666.741 769.772 C 662.481 760.294, 660.517 757.816, 658.701 759.632 M 700 771.887 C 700 784.333, 700.102 785, 702 785 C 703.758 785, 704 784.333, 704 779.500 L 704 774 708.389 774 C 714.306 774, 717.400 771.464, 717.400 766.615 C 717.400 761.188, 715.230 759.635, 706.997 759.170 L 700 758.774 700 771.887 M 473.295 762.203 C 468.957 763.327, 467 766.457, 467 772.268 C 467 776.055, 467.527 777.618, 469.455 779.545 C 472.808 782.899, 478.822 782.918, 482.694 779.587 C 485.074 777.540, 485.500 776.412, 485.500 772.167 C 485.500 764.238, 480.668 760.293, 473.295 762.203 M 287 766.500 L 287 771 291.465 771 C 296.797 771, 298.979 768.444, 297.124 764.374 C 296.218 762.385, 295.310 762, 291.521 762 L 287 762 287 766.500 M 542 767 C 542 771.983, 542.011 772, 545.277 772 C 549.447 772, 553 769.535, 553 766.643 C 553 763.314, 551.104 762, 546.300 762 L 542 762 542 767 M 595 766.500 L 595 771 599.465 771 C 604.797 771, 606.979 768.444, 605.124 764.374 C 604.218 762.385, 603.310 762, 599.521 762 L 595 762 595 766.500 M 704 766.555 L 704 771.110 708.750 770.805 C 713.350 770.510, 713.510 770.393, 713.824 767.105 C 714.207 763.091, 712.950 762.037, 707.750 762.015 L 704 762 704 766.555 M 349.547 767.303 C 348.657 769.395, 347.664 772.432, 347.339 774.053 C 346.764 776.929, 346.848 777, 350.816 777 C 353.052 777, 355.077 776.663, 355.315 776.250 C 355.553 775.837, 354.717 772.800, 353.457 769.500 L 351.165 763.500 349.547 767.303" stroke="none" fill="#000000" fill-rule="evenodd"/>
</svg>